<?xml version="1.0" encoding="utf-8"?>
<!-- Generator: Adobe Illustrator 23.0.2, SVG Export Plug-In . SVG Version: 6.00 Build 0)  -->
<svg version="1.1" id="Layer_1" xmlns="http://www.w3.org/2000/svg" xmlns:xlink="http://www.w3.org/1999/xlink" x="0px" y="0px"
	 viewBox="0 0 280 72" style="enable-background:new 0 0 280 72;" xml:space="preserve">
<style type="text/css">
	.st0{fill:#2467B6;}
</style>
<path class="st0" d="M60.6,19.9c-9.6,0-16.3,6.6-16.3,16.1S51,52.2,60.6,52.2S77,45.6,77,36C76.9,26.5,70.2,19.9,60.6,19.9z
	 M60.6,45.5c-5.2,0-9.2-4.1-9.2-9.5s4-9.4,9.2-9.4c5.3,0,9.2,4,9.2,9.4C69.8,41.5,65.9,45.5,60.6,45.5z"/>
<path class="st0" d="M94.8,19.9c-9.6,0-16.3,6.6-16.3,16.1s6.7,16.2,16.3,16.2s16.4-6.6,16.4-16.2C111.1,26.5,104.4,19.9,94.8,19.9z
	 M94.8,45.5c-5.2,0-9.2-4.1-9.2-9.5s4-9.4,9.2-9.4c5.3,0,9.2,4,9.2,9.4C104,41.5,100.1,45.5,94.8,45.5z"/>
<path class="st0" d="M124.6,20.3h-10.3v31.3h10.3c10.3,0,17-6.1,17-15.6C141.7,26.5,135,20.3,124.6,20.3z M124.7,45.2h-3.3V26.8h3.3
	c6.4,0,9.9,3.3,9.9,9.2S131.1,45.2,124.7,45.2z"/>
<path class="st0" d="M165.6,35.1c1.6-1.3,2.9-3.4,2.9-5.9c0-5.7-3.7-8.9-10.1-8.9H145v31.3h13.5c7,0,11-3.4,11-9.3
	C169.5,38.8,167.8,36.4,165.6,35.1z M157.4,32.7h-5.2v-6.1h5.8c3.2,0,3.5,1.7,3.5,3C161.4,32.4,158.6,32.7,157.4,32.7z M152.1,38.7
	h6.2c1.5,0,4.1,0.4,4.1,3.4c0,1.5-0.5,3.3-4,3.3h-6.3V38.7z"/>
<path class="st0" d="M187.6,19.9c-9.6,0-16.3,6.6-16.3,16.1s6.7,16.2,16.3,16.2S204,45.6,204,36C204,26.5,197.2,19.9,187.6,19.9z
	 M187.6,45.5c-5.2,0-9.2-4.1-9.2-9.5s4-9.4,9.2-9.4c5.3,0,9.2,4,9.2,9.4C196.8,41.5,192.9,45.5,187.6,45.5z"/>
<path class="st0" d="M221.8,19.9c-9.6,0-16.3,6.6-16.3,16.1s6.7,16.2,16.3,16.2s16.4-6.6,16.4-16.2
	C238.2,26.5,231.4,19.9,221.8,19.9z M221.8,45.5c-5.2,0-9.2-4.1-9.2-9.5s4-9.4,9.2-9.4c5.3,0,9.2,4,9.2,9.4
	C231,41.5,227.1,45.5,221.8,45.5z"/>
<polygon class="st0" points="258.3,35.4 268.1,20.3 260.1,20.3 248.4,38.3 248.4,20.3 241.4,20.3 241.4,51.6 247.2,51.6 254.2,41.2 
	261.2,51.6 269.7,51.6 "/>
<path class="st0" d="M42.9,34.5h-6h-1.2h-7.8v6h6.9c-1.5,3-4.5,4.9-8.2,4.9c-5.2,0-9.2-4.1-9.2-9.5c0-5.4,4-9.4,9.2-9.4
	c3.2,0,5.8,1.4,7.5,3.7h8c-2.2-6.3-7.9-10.4-15.4-10.4c-9.6,0-16.3,6.6-16.3,16.1S17,52.2,26.6,52.2C36.2,52.2,43,45.5,43,36
	C43,35.5,43,35,42.9,34.5z"/>
</svg>
